<?xml version="1.0" encoding="utf-8"?>
<!-- Generator: Adobe Illustrator 17.0.1, SVG Export Plug-In . SVG Version: 6.00 Build 0)  -->
<!DOCTYPE svg PUBLIC "-//W3C//DTD SVG 1.1//EN" "http://www.w3.org/Graphics/SVG/1.1/DTD/svg11.dtd">
<svg version="1.1" id="Layer_1" xmlns="http://www.w3.org/2000/svg" xmlns:xlink="http://www.w3.org/1999/xlink" x="0px" y="0px"
	 width="100px" height="100px" viewBox="0 0 100 100" enable-background="new 0 0 100 100" xml:space="preserve">
<path fill="#666666" d="M100,49.973c-0.021,2.749-0.953,5.438-2.734,7.633c-0.758,1.096-36.082,36.61-36.082,36.61
	c-8.877,9.861-24.229-4.475-15.601-14.058l14.364-17.39H9.848c-6.677,0.116-9.988-6.397-9.843-12.741
	c-0.148-6.401,3.163-12.912,9.843-12.795h50.099l-14.364-17.39c-8.628-9.584,6.724-23.92,15.601-14.059
	c0,0,35.324,35.515,36.082,36.61C99.045,44.589,99.979,47.279,100,49.973z"/>
</svg>
